HIERARCHY
ROOT Hips
{
 OFFSET 0.000000 0.000000 0.000000
 CHANNELS 6 Xposition Yposition Zposition Yrotation Xrotation Zrotation
 JOINT Chest
 {
  OFFSET 0.000000 10.678932 0.006280
  CHANNELS 3 Yrotation Xrotation Zrotation
  JOINT Chest2
  {
   OFFSET 0.000000 10.491159 -0.011408
   CHANNELS 3 Yrotation Xrotation Zrotation
   JOINT Chest3
   {
    OFFSET 0.000000 9.479342 0.000000
    CHANNELS 3 Yrotation Xrotation Zrotation
    JOINT Chest4
    {
     OFFSET 0.000000 9.479342 0.000000
     CHANNELS 3 Yrotation Xrotation Zrotation
     JOINT Neck
     {
      OFFSET 0.000000 13.535332 0.000000
      CHANNELS 3 Yrotation Xrotation Zrotation
      JOINT Head
      {
       OFFSET 0.000000 8.819083 -0.027129
       CHANNELS 3 Yrotation Xrotation Zrotation
       End Site
       {
        OFFSET 0.000000 16.966594 -0.014170
       }
      }
     }
     JOINT RightCollar
     {
      OFFSET -3.012546 7.545150 0.000000
      CHANNELS 3 Yrotation Xrotation Zrotation
      JOINT RightShoulder
      {
       OFFSET -13.683099 0.000000 0.000000
       CHANNELS 3 Yrotation Xrotation Zrotation
       JOINT RightElbow
       {
        OFFSET -26.359998 0.000000 0.000000
        CHANNELS 3 Yrotation Xrotation Zrotation
        JOINT RightWrist
        {
         OFFSET -21.746691 0.000000 0.008601
         CHANNELS 3 Yrotation Xrotation Zrotation
         End Site
         {
          OFFSET -16.348058 0.000000 0.000000
         }
        }
       }
      }
     }
     JOINT LeftCollar
     {
      OFFSET 3.012546 7.545150 0.000000
      CHANNELS 3 Yrotation Xrotation Zrotation
      JOINT LeftShoulder
      {
       OFFSET 13.683099 0.000000 0.000000
       CHANNELS 3 Yrotation Xrotation Zrotation
       JOINT LeftElbow
       {
        OFFSET 26.359998 0.000000 0.000000
        CHANNELS 3 Yrotation Xrotation Zrotation
        JOINT LeftWrist
        {
         OFFSET 21.746691 0.000000 0.008601
         CHANNELS 3 Yrotation Xrotation Zrotation
         End Site
         {
          OFFSET 16.348058 0.000000 0.000000
         }
        }
       }
      }
     }
    }
   }
  }
 }
 JOINT RightHip
 {
  OFFSET -8.622479 -0.030774 -0.003140
  CHANNELS 3 Yrotation Xrotation Zrotation
  JOINT RightKnee
  {
   OFFSET 0.000000 -37.209160 -0.002630
   CHANNELS 3 Yrotation Xrotation Zrotation
   JOINT RightAnkle
   {
    OFFSET 0.000000 -37.343279 -0.058479
    CHANNELS 3 Yrotation Xrotation Zrotation
    JOINT RightToe
    {
     OFFSET 0.000000 -8.903465 15.088070
     CHANNELS 3 Yrotation Xrotation Zrotation
     End Site
     {
      OFFSET 0.000000 -1.471739 6.884388
     }
    }
   }
  }
 }
 JOINT LeftHip
 {
  OFFSET 8.622479 -0.030774 -0.003140
  CHANNELS 3 Yrotation Xrotation Zrotation
  JOINT LeftKnee
  {
   OFFSET 0.000000 -37.209160 -0.002630
   CHANNELS 3 Yrotation Xrotation Zrotation
   JOINT LeftAnkle
   {
    OFFSET 0.000000 -37.343279 -0.058479
    CHANNELS 3 Yrotation Xrotation Zrotation
    JOINT LeftToe
    {
     OFFSET 0.000000 -8.903465 15.088070
     CHANNELS 3 Yrotation Xrotation Zrotation
     End Site
     {
      OFFSET 0.000000 -1.471739 6.884388
     }
    }
   }
  }
 }
}
MOTION
Frames: 15
Frame Time: 0.150000
-0.207611 83.315683 -17.340600 0.000000 -5.826342 0.000000 0.000000 11.116423 0.000000 0.000000 -5.290081 0.000000 0.000000 0.000000 0.000000 0.000000 0.000000 0.000000 0.000000 12.665069 0.000000 0.000000 0.575450 0.000000 0.000000 0.000000 0.000000 0.000000 0.000000 0.000000 2.337306 0.000000 0.000000 -2.337306 0.000000 0.000000 0.000000 0.000000 0.000000 0.000000 0.000000 0.000000 -2.337306 0.000000 0.000000 2.337306 0.000000 0.000000 0.000000 8.578828 0.000000 0.000000 1.905768 0.000000 0.000000 -4.658254 0.000000 0.000000 0.000000 0.000000 0.000000 8.578828 0.000000 0.000000 1.905768 0.000000 0.000000 -4.658254 0.000000 0.000000 0.000000 0.000000
-170.085494 81.767023 -341.544819 23.093918 -6.239514 -0.397604 1.561094 4.689671 0.029593 0.058078 0.172205 0.003642 0.095446 0.282985 0.006078 1.496613 4.417115 0.148992 -3.350761 16.038176 1.397172 -6.741910 -6.244308 3.812991 -0.401260 -4.139753 -0.143563 5.421334 31.058748 54.852827 115.586097 19.715498 64.222376 29.793389 9.032911 -14.606453 -4.672678 -2.546197 7.375760 -27.191468 24.748896 -65.957940 -106.432982 23.320850 -56.841497 -26.609469 10.400046 24.101148 0.228243 9.207507 -16.615968 -18.422879 3.359405 -0.399938 21.806053 -8.018858 18.214044 0.067034 -0.142699 0.042681 5.353364 15.560984 16.003463 10.357642 -7.850538 -0.132406 -2.489240 -0.391706 -18.470299 -0.049673 0.056244 -0.019749
-170.158836 81.753525 -341.417352 22.744847 -6.125364 -0.398677 1.594263 4.670925 -0.013026 0.059375 0.171464 0.001968 0.097581 0.281782 0.003328 1.529728 4.402576 0.107085 -3.162567 15.717048 1.276161 -6.365768 -6.859791 3.540288 -0.334631 -4.176173 -0.045243 5.447183 31.062076 54.788555 115.601269 19.829325 64.275679 29.769591 9.062420 -14.618851 -4.788295 -2.690892 7.436960 -27.411548 24.857297 -65.976676 -106.411388 23.234133 -56.633434 -26.373539 9.430377 23.693388 0.228433 9.029323 -16.652000 -18.287921 3.406211 -0.303716 22.103703 -8.116267 18.203862 0.067936 -0.119432 0.007767 5.519247 15.615644 15.971006 10.549428 -7.915044 -0.038594 -2.450043 -0.292542 -18.505841 -0.088754 0.018790 -0.069652
-170.122374 81.739816 -341.354065 22.441795 -6.168115 -0.349885 2.036114 4.539973 -0.102535 0.076433 0.168291 -0.001381 0.125541 0.276424 -0.002150 1.946037 4.279669 0.034724 -3.452682 15.952555 1.187900 -6.860771 -6.411318 3.466212 -0.698609 -4.191700 0.416865 4.248965 31.390911 54.949056 116.557332 20.437127 64.277232 30.101871 9.147283 -14.647936 -6.026488 -1.582796 7.460392 -26.732690 24.221873 -64.555198 -106.840263 23.193185 -56.416365 -27.610420 9.491399 24.476180 0.255792 8.947151 -16.790882 -18.269373 3.561643 -0.298785 22.361319 -8.159111 18.232258 0.075008 -0.142496 0.048864 5.544064 15.822458 15.831933 10.724001 -7.893139 0.008191 -2.367058 -0.408096 -18.545177 -0.084877 0.050609 -0.033309
-170.156878 81.744527 -341.351665 22.329481 -6.076437 -0.347857 1.959862 4.431665 -0.136650 0.071100 0.159341 -0.002353 0.116971 0.262148 -0.003766 1.865630 4.178921 0.003748 -3.479508 15.126092 1.294362 -6.998321 -7.934654 3.730033 -0.620015 -4.196833 0.259457 4.465389 31.265352 54.927576 117.059881 20.609903 64.335763 30.157327 9.253950 -14.615578 -5.791276 -1.360012 7.547370 -26.213527 24.128145 -64.250993 -107.254078 23.019731 -56.210173 -27.624476 9.424305 23.730464 0.327437 8.833714 -16.787722 -18.347018 3.548608 -0.321072 22.630526 -8.152946 18.257923 0.074264 -0.145395 0.027152 5.628061 15.799538 15.774323 10.758305 -7.996209 0.041229 -2.371990 -0.373752 -18.572497 -0.073388 0.069695 -0.046379
-170.300529 81.761533 -341.379105 22.174813 -6.200104 -0.402053 1.802292 4.328757 -0.111516 0.063661 0.151090 -0.001739 0.104912 0.248999 -0.002776 1.727053 4.096048 0.012322 -3.366299 15.261801 1.011704 -6.673244 -7.709596 3.150753 -0.763346 -4.195600 0.045287 4.726887 31.125979 54.960248 117.170795 20.589551 64.268090 30.209343 9.303254 -14.428381 -5.481411 -1.374903 7.579621 -26.136094 24.148332 -64.220781 -107.722271 23.160550 -56.220889 -27.400515 9.420534 23.814001 0.392101 8.879256 -16.660317 -18.419825 3.504604 -0.381282 22.861309 -8.175948 18.368348 0.065665 -0.111670 0.012602 5.631644 15.871705 15.850587 10.863927 -7.918232 0.068790 -2.372335 -0.322753 -18.589596 -0.059691 0.057151 -0.042382
-170.406438 81.766754 -341.539417 21.962346 -6.384318 -0.454030 1.961086 4.215632 -0.142063 0.070825 0.149080 -0.002006 0.116697 0.245642 -0.003207 1.914452 4.027292 0.010617 -3.417394 15.923176 1.138892 -6.778979 -6.471347 3.364222 -2.378312 -4.117935 -0.330526 5.380780 30.548646 55.007916 117.283001 20.249185 64.055726 30.557871 9.207326 -14.208877 -4.750101 -1.369892 8.758724 -26.104067 22.881165 -64.006260 -108.108537 22.446632 -56.309510 -27.467207 9.100063 21.990335 0.762362 8.967684 -16.510781 -18.608988 3.455494 -0.493697 22.906680 -8.154498 18.448634 0.070936 -0.119633 0.054128 5.601437 15.990177 15.848496 10.921903 -7.865714 0.108325 -2.283313 -0.440319 -18.543266 -0.032693 0.114699 -0.028507
-170.422520 81.795383 -341.744871 21.638706 -6.538254 -0.214604 1.957935 4.302691 -0.194032 0.073213 0.156102 -0.003642 0.120485 0.256905 -0.005889 1.931987 4.120325 -0.029303 -3.613585 15.074909 1.142789 -7.195353 -8.031839 3.500332 -2.235599 -4.200329 -0.469326 6.499828 30.224876 54.722393 117.171149 20.223485 64.048406 30.907661 9.144300 -14.758646 -4.299777 -1.456142 9.067365 -26.250913 22.509749 -64.188535 -108.411701 22.610206 -56.258921 -27.707606 9.121786 21.461747 1.023905 8.885724 -16.790004 -18.617052 3.596575 -0.579842 22.768742 -8.203710 18.538056 0.073397 -0.103362 0.057702 5.248046 16.024854 15.443727 11.237262 -7.520030 0.068910 -2.159953 -0.439526 -18.450654 -0.066923 0.034836 -0.016077
-170.617112 81.811295 -341.782347 21.879341 -6.960717 -0.394995 1.632703 4.508792 0.040516 0.057179 0.158427 0.002996 0.094168 0.260896 0.005018 1.533514 4.232000 0.134645 -3.279262 14.597084 0.847327 -6.483954 -8.958217 2.852052 -2.708640 -3.785609 -0.842324 6.039216 29.696371 54.578012 117.455076 19.987747 63.745558 31.215241 9.088611 -14.957013 -3.806390 -1.071963 8.873337 -26.036071 22.484695 -64.385493 -108.352168 22.885824 -56.114407 -27.839700 9.326570 21.968770 1.405904 9.342107 -16.442481 -18.777110 3.780137 -0.612875 22.634133 -8.395512 18.425396 0.053750 -0.121602 0.025256 5.325603 16.230788 15.830914 11.194458 -7.446577 -0.008780 -2.339533 -0.372964 -18.568217 -0.004526 0.087707 0.002893
-171.045968 81.834056 -341.726203 21.927599 -7.393244 -0.792494 1.416776 4.750554 0.166459 0.049499 0.170339 0.006748 0.081407 0.280104 0.011174 1.295320 4.424274 0.223576 -3.031260 14.205043 1.077880 -6.128278 -9.684793 3.213789 -2.821213 -3.550825 -0.968961 5.702601 29.579882 54.511563 117.105704 19.787810 63.351125 30.773991 8.810734 -14.082670 -3.347071 -0.894797 8.737454 -25.866640 22.277924 -64.465611 -108.276850 22.968156 -56.207050 -27.588065 9.523555 22.171567 1.685719 9.498528 -15.828646 -18.498928 4.345586 -0.576939 22.351340 -8.834746 18.253168 0.040487 -0.063577 -0.024615 5.503853 16.313439 16.645661 11.330943 -7.072073 -0.081705 -2.495259 -0.297422 -18.891747 0.010446 0.079201 0.028715
-171.318676 81.853272 -341.670182 22.213456 -7.498013 -0.891871 1.720858 5.013820 0.054442 0.061959 0.188245 0.001014 0.101566 0.308572 0.001768 1.522218 4.611389 0.083651 -3.112334 13.076666 1.207769 -6.399062 -11.764410 3.564434 -2.906708 -3.554968 -0.464792 4.912817 29.957034 54.716123 116.573487 20.012953 63.245467 30.904976 8.811953 -13.931476 -3.307283 -0.896297 9.120002 -25.828207 22.005693 -64.602342 -108.418638 23.015030 -56.134704 -27.410696 9.428774 21.587065 2.059465 9.578584 -15.521697 -18.511991 4.730449 -0.587861 21.782415 -9.110946 18.061964 0.030142 -0.088486 0.020233 5.822621 16.167587 17.077395 11.311690 -7.015108 -0.220164 -2.780603 -0.121565 -19.046890 -0.000042 0.080743 0.007313
-171.231285 81.896442 -341.532685 22.525615 -7.575860 -0.479542 1.940838 5.014894 -0.221971 0.071704 0.191224 -0.008404 0.117416 0.313173 -0.013639 1.723782 4.610545 -0.136143 -3.698927 13.021955 1.019875 -7.438106 -11.841747 3.450796 -2.768774 -3.737046 -0.203600 4.658005 30.055786 54.782738 116.465194 20.038438 63.274599 31.035925 8.909664 -14.203120 -2.821985 -0.431178 9.668427 -25.099591 21.237831 -64.120272 -109.345655 22.861943 -56.109615 -27.536475 9.461542 20.822351 1.978344 9.975913 -15.924723 -18.747973 4.565067 -0.632356 21.764360 -9.016916 18.110778 0.047649 -0.204800 0.029071 5.414569 16.084317 16.663354 11.234751 -6.515630 -0.302396 -2.728747 -0.078524 -19.228260 0.007016 0.002553 0.109558
-171.388481 81.892013 -341.549963 22.674578 -7.616489 -0.593439 1.762761 4.965981 -0.117368 0.063366 0.185356 -0.005682 0.103895 0.303940 -0.009209 1.559714 4.570048 -0.080415 -3.539956 13.664415 1.015029 -7.093950 -10.661146 3.330909 -2.283935 -3.911945 -0.130601 4.721231 29.993374 54.486493 115.749364 19.608652 63.271322 30.292249 8.489577 -13.237703 -3.019156 -0.691234 9.374549 -25.540957 21.565237 -64.160766 -109.145127 22.910991 -56.107485 -27.466106 9.522786 21.117503 1.951942 10.216580 -15.727765 -18.888622 4.106693 -0.575204 21.694835 -8.701547 18.303637 0.025715 -0.093394 -0.038399 5.307624 15.989015 16.790421 11.089026 -6.408146 -0.192686 -2.637015 -0.012105 -19.363999 0.051379 0.183802 -0.052652
-171.807140 81.873811 -341.939599 22.316201 -7.394198 -1.016646 1.690894 5.264749 0.021156 0.066663 0.210311 -0.001457 0.108917 0.343626 -0.002253 1.544212 4.864645 0.029049 -3.286738 13.580463 1.085808 -6.649097 -10.827641 3.369716 -1.855881 -4.097930 0.041424 4.423201 30.334165 54.776063 115.166309 19.672128 63.132879 29.938999 8.010449 -13.238666 -3.164738 -1.158768 9.006580 -25.898188 21.879246 -64.716597 -108.698358 23.394720 -56.255509 -27.236819 9.675533 21.697179 1.693589 9.323760 -15.274162 -18.393039 4.104819 -0.621707 22.110364 -8.429158 18.354488 -0.013652 -0.042351 -0.009358 5.138024 15.111409 17.341300 10.852509 -5.418931 -0.213091 -2.239215 -0.748919 -19.001067 0.117485 0.140233 0.031266
-171.729076 81.866471 -342.241150 21.677061 -6.892747 -0.970078 1.652831 5.202836 -0.087649 0.069104 0.212135 -0.002106 0.112866 0.346485 -0.003308 1.590606 4.877517 0.016340 -2.976723 13.634514 1.103856 -6.067545 -10.744550 3.276866 -1.471109 -4.150374 0.481065 3.871936 30.213951 54.419371 114.531027 19.527340 63.106378 29.392031 7.607782 -11.831726 -3.370142 -1.523094 8.685763 -25.820029 22.269822 -64.842764 -108.057908 23.819526 -56.068901 -27.199183 9.731277 21.535944 1.480476 8.373140 -15.550963 -17.909535 3.995055 -0.667036 22.477188 -8.099018 18.498589 0.029444 -0.110195 0.039115 4.975129 15.202758 16.833154 11.226866 -6.306229 -0.118634 -1.910198 -0.615976 -18.846981 0.074957 0.195016 0.039438
